<svg width="824" height="1659" viewBox="0 0 824 1659" fill="none" xmlns="http://www.w3.org/2000/svg">
<path d="M135 14.2999H691.4C752.574 14.2999 801.8 62.0339 801.8 122.7V1536.9C801.8 1596.27 753.568 1644.5 694.2 1644.5H131.1C71.332 1644.5 22.8 1595.97 22.8 1536.2V124.5C22.8 62.9152 72.7457 14.2999 135 14.2999Z" stroke="black" stroke-width="28"/>
<path d="M35.2 1533.6V123.1C35.2 60.7 85.8999 10 148.3 10H133.6C71.1999 10 20.4999 60.7 20.4999 123.1V1533.6C20.4999 1596 71.1999 1646.7 133.6 1646.7H148.3C85.8999 1646.7 35.2 1596 35.2 1533.6Z" fill="url(#paint0_linear_5_3)"/>
<path d="M26.3999 1533.6V118.7C26.3999 88.8 38.0999 61.8 56.8999 41.6C35.3999 62.2 21.9999 91.1 21.9999 123.1V1533.6C21.9999 1596 72.6999 1646.7 135.1 1646.7H139.5C76.9999 1646.7 26.3999 1596.1 26.3999 1533.6Z" fill="#131313"/>
<path d="M21.8999 1533.6V115.8C21.8999 90.3 30.0999 66.7 43.9999 47.4C26.6999 67.9 16.2 94.3 16.2 123.1V1533.6C16.2 1598.4 68.8999 1651.1 133.7 1651.1H139.4C74.4999 1651.1 21.8999 1598.5 21.8999 1533.6Z" fill="url(#paint1_linear_5_3)"/>
<path d="M789.3 1533.6V123.1C789.3 60.7 738.6 10 676.2 10H690.9C753.3 10 804 60.7 804 123.1V1533.6C804 1596 753.3 1646.7 690.9 1646.7H676.2C738.6 1646.7 789.3 1596 789.3 1533.6Z" fill="url(#paint2_linear_5_3)"/>
<path d="M798.2 1533.6V118.7C798.2 88.8 786.5 61.8 767.7 41.6C789.2 62.2 802.6 91.1 802.6 123.1V1533.6C802.6 1596 751.9 1646.7 689.5 1646.7H685.1C747.6 1646.7 798.2 1596.1 798.2 1533.6Z" fill="#131313"/>
<path d="M802.7 1533.6V115.8C802.7 90.3 794.5 66.7 780.6 47.4C797.9 67.9 808.4 94.3 808.4 123.1V1533.6C808.4 1598.4 755.7 1651.1 690.9 1651.1H685.2C750.1 1651.1 802.7 1598.5 802.7 1533.6Z" fill="url(#paint3_linear_5_3)"/>
<g style="mix-blend-mode:screen">
<path d="M690.9 27.7H133.6C80.9999 27.7 38.2 70.5 38.2 123.1C38.2 123.1 38.3999 126.6 38.8999 122.8C44.5999 75.6 84.8999 38.8 133.6 38.8H690.9C739.7 38.8 780.1 75.7 785.7 123C786.1 126.7 786.4 123 786.4 123C786.4 70.4 743.6 27.6 691 27.6L690.9 27.7Z" fill="url(#paint4_linear_5_3)"/>
<path d="M690.9 20.2999H133.6C82.8 20.2999 39.8 54.3999 26.4 100.9C23.8 109.8 26.3 109.9 29.8 101C46.2 59.5999 86.5 30.2999 133.6 30.2999H690.9C738.9 30.2999 779.9 60.6999 795.6 103.3C798.9 112.3 801.1 111.5 798.4 101.9C785.3 54.7999 742 20.2 690.9 20.2V20.2999Z" fill="url(#paint5_linear_5_3)"/>
<path d="M690.9 5.59998H133.6C68.8 5.59998 16.1 58.3 16.1 123.1C16.1 123.1 16.4 128.1 17 123.3C24.2 65.3 73.7 20.3 133.6 20.3H690.9C750.7 20.3 800.3 65.3 807.5 123.2C808.1 128 808.4 123.2 808.4 123.2C808.4 58.4 755.7 5.69998 690.9 5.69998V5.59998Z" fill="url(#paint6_linear_5_3)"/>
</g>
<path d="M690.9 1629.1H133.6C80.9999 1629.1 38.2 1586.3 38.2 1533.7C38.2 1533.7 38.3999 1530.2 38.8999 1534C44.5999 1581.2 84.8999 1618 133.6 1618H690.9C739.7 1618 780.1 1581.1 785.7 1533.8C786.1 1530.1 786.4 1533.8 786.4 1533.8C786.4 1586.4 743.6 1629.2 691 1629.2L690.9 1629.1Z" fill="url(#paint7_linear_5_3)"/>
<path d="M690.9 1636.5H133.6C82.8 1636.5 39.8 1602.4 26.4 1555.9C23.8 1547 26.3 1546.9 29.8 1555.8C46.2 1597.2 86.5 1626.5 133.6 1626.5H690.9C738.9 1626.5 779.9 1596.1 795.6 1553.5C798.9 1544.5 801.1 1545.3 798.4 1554.9C785.3 1602 742 1636.6 690.9 1636.6V1636.5Z" fill="url(#paint8_linear_5_3)"/>
<path d="M690.9 1651.1H133.6C68.8 1651.1 16.1 1598.4 16.1 1533.6C16.1 1533.6 16.4 1528.6 17 1533.4C24.2 1591.4 73.7 1636.4 133.6 1636.4H690.9C750.7 1636.4 800.3 1591.4 807.5 1533.5C808.1 1528.7 808.4 1533.5 808.4 1533.5C808.4 1598.3 755.7 1651 690.9 1651V1651.1Z" fill="url(#paint9_linear_5_3)"/>
<path d="M4.60001 235.5H8.70001V303.7H4.60001C2.50001 303.7 0.799988 302 0.799988 299.9V239.3C0.799988 237.2 2.50001 235.5 4.60001 235.5Z" fill="#040303"/>
<path d="M6 236.7H8.79999V302.4H6C3.9 302.4 2.20001 300.7 2.20001 298.6V240.6C2.20001 238.5 3.9 236.8 6 236.8V236.7Z" fill="url(#paint10_linear_5_3)"/>
<path d="M4.69998 240.1H2.09998V299.3H4.69998V240.1Z" fill="url(#paint11_linear_5_3)"/>
<path style="mix-blend-mode:screen" opacity="0.7" d="M4.69998 240.1H2.09998V299.3H4.69998V240.1Z" fill="url(#paint12_linear_5_3)"/>
<path d="M4.60001 360.2H8.70001V474.4H4.60001C2.50001 474.4 0.799988 472.7 0.799988 470.6V364C0.799988 361.9 2.50001 360.2 4.60001 360.2Z" fill="#040303"/>
<path d="M6 362.3H8.79999V472.3H6C3.9 472.3 2.20001 470.6 2.20001 468.5V366.2C2.20001 364.1 3.9 362.4 6 362.4V362.3Z" fill="url(#paint13_linear_5_3)"/>
<path d="M4.69998 367.9H2.09998V467H4.69998V367.9Z" fill="url(#paint14_linear_5_3)"/>
<path style="mix-blend-mode:screen" opacity="0.7" d="M4.69998 367.9H2.09998V467H4.69998V367.9Z" fill="url(#paint15_linear_5_3)"/>
<path d="M5.29999 505.3H9.39999V619.5H5.29999C3.19999 619.5 1.5 617.8 1.5 615.7V509.1C1.5 507 3.19999 505.3 5.29999 505.3Z" fill="#040303"/>
<path d="M6.60001 507.5H9.39999V617.5H6.60001C4.50001 617.5 2.79999 615.8 2.79999 613.7V511.4C2.79999 509.3 4.50001 507.6 6.60001 507.6V507.5Z" fill="url(#paint16_linear_5_3)"/>
<path d="M5.39999 513.1H2.79999V612.2H5.39999V513.1Z" fill="url(#paint17_linear_5_3)"/>
<path style="mix-blend-mode:screen" opacity="0.7" d="M5.39999 513.1H2.79999V612.2H5.39999V513.1Z" fill="url(#paint18_linear_5_3)"/>
<path d="M819.9 553.6H815.8V368.3H819.9C822 368.3 823.7 370 823.7 372.1V549.7C823.7 551.8 822 553.5 819.9 553.5V553.6Z" fill="#040303"/>
<path d="M818.6 550.2H815.8V371.8H818.6C820.7 371.8 822.4 373.5 822.4 375.6V546.4C822.4 548.5 820.7 550.2 818.6 550.2Z" fill="url(#paint19_linear_5_3)"/>
<path d="M819.8 541.6H822.4V380.9H819.8V541.6Z" fill="url(#paint20_linear_5_3)"/>
<path style="mix-blend-mode:screen" opacity="0.7" d="M819.8 541.6H822.4V380.9H819.8V541.6Z" fill="url(#paint21_linear_5_3)"/>
<path d="M740.1 108.6C740.1 106.1 738.3 104.1 736 103.6C735.7 99.8 732.6 96.8 728.7 96.8H698.9C694.8 96.8 691.5 100.1 691.5 104.2V112.9C691.5 117 694.8 120.4 698.9 120.4H728.7C732.6 120.4 735.7 117.4 736 113.6C738.3 113.1 740.1 111.1 740.1 108.6ZM733.6 112.9C733.6 115.6 731.4 117.7 728.8 117.7H713.9V99.3H728.8C731.5 99.3 733.6 101.5 733.6 104.1V112.8V112.9Z" fill="white"/>
<path d="M667.2 110.3C664.2 110.3 661.7 112.8 661.7 115.8C661.7 118.8 664.2 121.3 667.2 121.3C670.2 121.3 672.7 118.8 672.7 115.8C672.7 112.8 670.2 110.3 667.2 110.3Z" fill="white"/>
<path d="M667.2 102.8C659.6 102.8 658 107.5 657.9 107.7C657.7 108.4 658 109.1 658.7 109.4C659.4 109.6 660.1 109.3 660.4 108.6C660.4 108.5 661.6 105.5 667.2 105.5C672.8 105.5 673.9 108.5 674 108.6C674.2 109.2 674.7 109.5 675.3 109.5C675.9 109.5 675.6 109.5 675.7 109.5C676.4 109.3 676.8 108.5 676.5 107.8C676.5 107.6 674.8 102.9 667.2 102.9V102.8Z" fill="white"/>
<path d="M667.2 97.4C657.1 97.4 654.1 103.2 653.9 103.5C653.6 104.2 653.9 104.9 654.5 105.3C655.2 105.6 656 105.3 656.3 104.7C656.3 104.5 658.8 100.1 667.2 100.1C675.6 100.1 678 104.5 678.1 104.7C678.3 105.2 678.8 105.4 679.3 105.4C679.8 105.4 679.7 105.4 679.9 105.3C680.6 105 680.8 104.2 680.5 103.5C680.2 102.8 677.3 97.4 667.2 97.4Z" fill="white"/>
<path d="M667.2 92.1C657.3 92.1 652.9 97.8 652.7 98C652.3 98.6 652.4 99.4 653 99.9C653.6 100.3 654.4 100.2 654.9 99.6C654.9 99.6 658.6 94.8 667.2 94.8C675.8 94.8 679.4 99.4 679.5 99.6C679.8 100 680.2 100.1 680.6 100.1C681 100.1 681.2 100.1 681.4 99.8C682 99.4 682.1 98.5 681.7 97.9C681.5 97.7 677.2 92 667.2 92V92.1Z" fill="white"/>
<path d="M617.7 108H612.3V118.7H617.7V108Z" fill="white"/>
<path d="M625.8 105.3H620.4V118.7H625.8V105.3Z" fill="white"/>
<path d="M633.8 100H628.4V118.7H633.8V100Z" fill="white"/>
<path d="M641.8 94.6H636.4V118.7H641.8V94.6Z" fill="white"/>
<defs>
<linearGradient id="paint0_linear_5_3" x1="20.4999" y1="828.4" x2="148.3" y2="828.4" gradientUnits="userSpaceOnUse">
<stop stop-color="#BABABA"/>
<stop offset="0.1" stop-color="#929292"/>
<stop offset="0.2" stop-color="#707070"/>
<stop offset="0.3" stop-color="#535353"/>
<stop offset="0.4" stop-color="#292929"/>
<stop offset="0.6" stop-color="#1C1C1C"/>
<stop offset="0.7" stop-color="#151515"/>
<stop offset="1" stop-color="#131313"/>
</linearGradient>
<linearGradient id="paint1_linear_5_3" x1="16.1" y1="849.3" x2="139.4" y2="849.3" gradientUnits="userSpaceOnUse">
<stop stop-color="#A6A6A6"/>
<stop offset="0.1" stop-color="#868686"/>
<stop offset="0.2" stop-color="#6B6B6B"/>
<stop offset="0.3" stop-color="#555555"/>
<stop offset="0.4" stop-color="#444444"/>
<stop offset="0.5" stop-color="#383838"/>
<stop offset="0.6" stop-color="#313131"/>
<stop offset="1" stop-color="#303030"/>
</linearGradient>
<linearGradient id="paint2_linear_5_3" x1="804.1" y1="444" x2="676.3" y2="444" gradientUnits="userSpaceOnUse">
<stop stop-color="#BABABA"/>
<stop offset="0.1" stop-color="#929292"/>
<stop offset="0.2" stop-color="#707070"/>
<stop offset="0.3" stop-color="#535353"/>
<stop offset="0.4" stop-color="#292929"/>
<stop offset="0.6" stop-color="#1C1C1C"/>
<stop offset="0.7" stop-color="#151515"/>
<stop offset="1" stop-color="#131313"/>
</linearGradient>
<linearGradient id="paint3_linear_5_3" x1="808.5" y1="444" x2="685.3" y2="444" gradientUnits="userSpaceOnUse">
<stop stop-color="#A6A6A6"/>
<stop offset="0.1" stop-color="#868686"/>
<stop offset="0.2" stop-color="#6B6B6B"/>
<stop offset="0.3" stop-color="#555555"/>
<stop offset="0.4" stop-color="#444444"/>
<stop offset="0.5" stop-color="#383838"/>
<stop offset="0.6" stop-color="#313131"/>
<stop offset="1" stop-color="#303030"/>
</linearGradient>
<linearGradient id="paint4_linear_5_3" x1="412.3" y1="124.8" x2="412.3" y2="27.7" gradientUnits="userSpaceOnUse">
<stop/>
<stop offset="1" stop-color="#4C4C4C"/>
</linearGradient>
<linearGradient id="paint5_linear_5_3" x1="412.5" y1="109.6" x2="412.5" y2="20.3" gradientUnits="userSpaceOnUse">
<stop/>
<stop offset="1" stop-color="#303030"/>
</linearGradient>
<linearGradient id="paint6_linear_5_3" x1="412.3" y1="125.4" x2="412.3" y2="5.59998" gradientUnits="userSpaceOnUse">
<stop/>
<stop offset="1" stop-color="white"/>
</linearGradient>
<linearGradient id="paint7_linear_5_3" x1="-271" y1="1532" x2="-270" y2="1629" gradientUnits="userSpaceOnUse">
<stop/>
<stop offset="1" stop-color="#4C4C4C"/>
</linearGradient>
<linearGradient id="paint8_linear_5_3" x1="412.5" y1="1547.1" x2="412.5" y2="1636.5" gradientUnits="userSpaceOnUse">
<stop/>
<stop offset="1" stop-color="#303030"/>
</linearGradient>
<linearGradient id="paint9_linear_5_3" x1="412.3" y1="1531.3" x2="412.3" y2="1651.1" gradientUnits="userSpaceOnUse">
<stop/>
<stop offset="1" stop-color="white"/>
</linearGradient>
<linearGradient id="paint10_linear_5_3" x1="5.4" y1="302.5" x2="5.4" y2="236.7" gradientUnits="userSpaceOnUse">
<stop stop-color="#282828"/>
<stop offset="0.1" stop-color="#4A4A4A"/>
<stop offset="0.2" stop-color="#7C7C7C"/>
<stop offset="0.3" stop-color="#8C8C8C"/>
<stop offset="0.4" stop-color="#959595"/>
<stop offset="0.5" stop-color="#989898"/>
<stop offset="0.6" stop-color="#959595"/>
<stop offset="0.7" stop-color="#8B8B8B"/>
<stop offset="0.8" stop-color="#646464"/>
<stop offset="0.9" stop-color="#474747"/>
<stop offset="1"/>
</linearGradient>
<linearGradient id="paint11_linear_5_3" x1="3.49998" y1="299.3" x2="3.49998" y2="240.1" gradientUnits="userSpaceOnUse">
<stop stop-color="#4C4C4C"/>
<stop offset="0.1" stop-color="#757575"/>
<stop offset="0.2" stop-color="#B3B3B3"/>
<stop offset="0.3" stop-color="#D9D9D9"/>
<stop offset="0.4" stop-color="#E2E2E2"/>
<stop offset="0.5" stop-color="#E5E5E5"/>
<stop offset="0.6" stop-color="#E2E2E2"/>
<stop offset="0.7" stop-color="#C8C8C8"/>
<stop offset="0.8" stop-color="#949494"/>
<stop offset="0.9" stop-color="#454545"/>
<stop offset="1"/>
</linearGradient>
<linearGradient id="paint12_linear_5_3" x1="3.49998" y1="299.3" x2="3.49998" y2="240.1" gradientUnits="userSpaceOnUse">
<stop stop-color="#4C4C4C"/>
<stop offset="0.1" stop-color="#757575"/>
<stop offset="0.2" stop-color="#B3B3B3"/>
<stop offset="0.3" stop-color="#D9D9D9"/>
<stop offset="0.4" stop-color="#E2E2E2"/>
<stop offset="0.5" stop-color="#E5E5E5"/>
<stop offset="0.6" stop-color="#E2E2E2"/>
<stop offset="0.7" stop-color="#C8C8C8"/>
<stop offset="0.8" stop-color="#949494"/>
<stop offset="0.9" stop-color="#454545"/>
<stop offset="1"/>
</linearGradient>
<linearGradient id="paint13_linear_5_3" x1="-270.999" y1="472.3" x2="-269.999" y2="362.3" gradientUnits="userSpaceOnUse">
<stop stop-color="#282828"/>
<stop offset="0.1" stop-color="#4A4A4A"/>
<stop offset="0.2" stop-color="#7C7C7C"/>
<stop offset="0.3" stop-color="#8C8C8C"/>
<stop offset="0.4" stop-color="#959595"/>
<stop offset="0.5" stop-color="#989898"/>
<stop offset="0.6" stop-color="#959595"/>
<stop offset="0.7" stop-color="#8B8B8B"/>
<stop offset="0.8" stop-color="#646464"/>
<stop offset="0.9" stop-color="#474747"/>
<stop offset="1"/>
</linearGradient>
<linearGradient id="paint14_linear_5_3" x1="-271.001" y1="467" x2="-270.001" y2="367.9" gradientUnits="userSpaceOnUse">
<stop stop-color="#4C4C4C"/>
<stop offset="0.1" stop-color="#757575"/>
<stop offset="0.2" stop-color="#B3B3B3"/>
<stop offset="0.3" stop-color="#D9D9D9"/>
<stop offset="0.4" stop-color="#E2E2E2"/>
<stop offset="0.5" stop-color="#E5E5E5"/>
<stop offset="0.6" stop-color="#E2E2E2"/>
<stop offset="0.7" stop-color="#C8C8C8"/>
<stop offset="0.8" stop-color="#949494"/>
<stop offset="0.9" stop-color="#454545"/>
<stop offset="1"/>
</linearGradient>
<linearGradient id="paint15_linear_5_3" x1="-271.001" y1="467" x2="-270.001" y2="367.9" gradientUnits="userSpaceOnUse">
<stop stop-color="#4C4C4C"/>
<stop offset="0.1" stop-color="#757575"/>
<stop offset="0.2" stop-color="#B3B3B3"/>
<stop offset="0.3" stop-color="#D9D9D9"/>
<stop offset="0.4" stop-color="#E2E2E2"/>
<stop offset="0.5" stop-color="#E5E5E5"/>
<stop offset="0.6" stop-color="#E2E2E2"/>
<stop offset="0.7" stop-color="#C8C8C8"/>
<stop offset="0.8" stop-color="#949494"/>
<stop offset="0.9" stop-color="#454545"/>
<stop offset="1"/>
</linearGradient>
<linearGradient id="paint16_linear_5_3" x1="6.09999" y1="617.5" x2="6.09999" y2="507.5" gradientUnits="userSpaceOnUse">
<stop stop-color="#282828"/>
<stop offset="0.1" stop-color="#4A4A4A"/>
<stop offset="0.2" stop-color="#7C7C7C"/>
<stop offset="0.3" stop-color="#8C8C8C"/>
<stop offset="0.4" stop-color="#959595"/>
<stop offset="0.5" stop-color="#989898"/>
<stop offset="0.6" stop-color="#959595"/>
<stop offset="0.7" stop-color="#8B8B8B"/>
<stop offset="0.8" stop-color="#646464"/>
<stop offset="0.9" stop-color="#474747"/>
<stop offset="1"/>
</linearGradient>
<linearGradient id="paint17_linear_5_3" x1="4.09999" y1="612.1" x2="4.09999" y2="513.1" gradientUnits="userSpaceOnUse">
<stop stop-color="#4C4C4C"/>
<stop offset="0.1" stop-color="#757575"/>
<stop offset="0.2" stop-color="#B3B3B3"/>
<stop offset="0.3" stop-color="#D9D9D9"/>
<stop offset="0.4" stop-color="#E2E2E2"/>
<stop offset="0.5" stop-color="#E5E5E5"/>
<stop offset="0.6" stop-color="#E2E2E2"/>
<stop offset="0.7" stop-color="#C8C8C8"/>
<stop offset="0.8" stop-color="#949494"/>
<stop offset="0.9" stop-color="#454545"/>
<stop offset="1"/>
</linearGradient>
<linearGradient id="paint18_linear_5_3" x1="4.09999" y1="612.1" x2="4.09999" y2="513.1" gradientUnits="userSpaceOnUse">
<stop stop-color="#4C4C4C"/>
<stop offset="0.1" stop-color="#757575"/>
<stop offset="0.2" stop-color="#B3B3B3"/>
<stop offset="0.3" stop-color="#D9D9D9"/>
<stop offset="0.4" stop-color="#E2E2E2"/>
<stop offset="0.5" stop-color="#E5E5E5"/>
<stop offset="0.6" stop-color="#E2E2E2"/>
<stop offset="0.7" stop-color="#C8C8C8"/>
<stop offset="0.8" stop-color="#949494"/>
<stop offset="0.9" stop-color="#454545"/>
<stop offset="1"/>
</linearGradient>
<linearGradient id="paint19_linear_5_3" x1="819.1" y1="550.2" x2="819.1" y2="371.8" gradientUnits="userSpaceOnUse">
<stop stop-color="#282828"/>
<stop offset="0.1" stop-color="#4A4A4A"/>
<stop offset="0.2" stop-color="#7C7C7C"/>
<stop offset="0.3" stop-color="#8C8C8C"/>
<stop offset="0.4" stop-color="#959595"/>
<stop offset="0.5" stop-color="#989898"/>
<stop offset="0.6" stop-color="#959595"/>
<stop offset="0.7" stop-color="#8B8B8B"/>
<stop offset="0.8" stop-color="#646464"/>
<stop offset="0.9" stop-color="#474747"/>
<stop offset="1"/>
</linearGradient>
<linearGradient id="paint20_linear_5_3" x1="821.1" y1="541.6" x2="821.1" y2="380.9" gradientUnits="userSpaceOnUse">
<stop stop-color="#4C4C4C"/>
<stop offset="0.1" stop-color="#757575"/>
<stop offset="0.2" stop-color="#B3B3B3"/>
<stop offset="0.3" stop-color="#D9D9D9"/>
<stop offset="0.4" stop-color="#E2E2E2"/>
<stop offset="0.5" stop-color="#E5E5E5"/>
<stop offset="0.6" stop-color="#E2E2E2"/>
<stop offset="0.7" stop-color="#C8C8C8"/>
<stop offset="0.8" stop-color="#949494"/>
<stop offset="0.9" stop-color="#454545"/>
<stop offset="1"/>
</linearGradient>
<linearGradient id="paint21_linear_5_3" x1="821.1" y1="541.6" x2="821.1" y2="380.9" gradientUnits="userSpaceOnUse">
<stop stop-color="#4C4C4C"/>
<stop offset="0.1" stop-color="#757575"/>
<stop offset="0.2" stop-color="#B3B3B3"/>
<stop offset="0.3" stop-color="#D9D9D9"/>
<stop offset="0.4" stop-color="#E2E2E2"/>
<stop offset="0.5" stop-color="#E5E5E5"/>
<stop offset="0.6" stop-color="#E2E2E2"/>
<stop offset="0.7" stop-color="#C8C8C8"/>
<stop offset="0.8" stop-color="#949494"/>
<stop offset="0.9" stop-color="#454545"/>
<stop offset="1"/>
</linearGradient>
</defs>
</svg>
