<svg width="630" height="630" viewBox="0 0 630 630" fill="none" xmlns="http://www.w3.org/2000/svg">
<path d="M332.316 523.259V433.759C332.316 433.359 334.616 430.159 335.216 429.659C338.716 426.859 353.216 428.559 358.816 428.259C405.816 425.459 449.016 411.359 484.316 379.759C572.516 300.859 555.116 152.159 441.316 108.759C391.516 89.7593 331.216 101.659 278.816 98.1593C273.316 98.6593 272.816 99.0593 272.316 104.659C270.216 129.659 274.016 157.459 272.316 182.759C272.516 186.759 274.516 186.959 277.816 187.259C314.916 190.859 358.016 184.559 395.816 187.259C456.016 191.359 477.016 252.359 449.116 301.559C422.816 348.059 367.916 375.459 316.616 384.059C302.616 386.459 288.316 386.759 274.216 388.659C269.216 391.459 275.116 424.859 270.516 428.259C265.916 431.659 264.716 430.059 262.716 430.259C243.916 431.859 207.316 431.959 188.616 430.259C185.016 429.959 182.916 429.259 180.716 426.159L180.116 19.6593C179.916 14.7593 182.816 11.9593 187.616 12.1593C258.416 15.0593 332.216 8.45931 402.716 12.1593C510.516 17.8593 605.616 101.759 623.916 207.959C648.416 350.259 563.116 473.759 426.216 506.659C422.216 507.659 407.716 509.259 406.116 511.859C404.516 514.459 405.316 515.059 405.116 516.659C402.516 546.659 408.616 582.459 405.116 611.759C404.716 615.159 403.316 617.459 400.116 618.759L8.61591 619.159C2.41591 618.259 1.51594 615.559 1.01594 609.759V20.6593C0.815939 17.2593 2.51591 14.6593 5.11591 12.7593L88.6159 12.1593C91.8159 12.1593 93.9159 15.1593 94.8159 17.9593L95.0159 506.759C95.9159 516.959 102.316 523.359 112.516 524.259H326.616L332.116 523.259H332.316ZM277.016 256.459C273.016 257.459 272.616 260.059 272.216 263.659C271.216 274.659 270.816 312.259 272.216 322.759C273.616 333.259 273.016 326.659 275.816 327.159C307.116 326.259 345.316 333.559 368.816 308.259C376.516 300.059 411.416 267.559 376.616 256.459H277.016Z" fill="#02A550"/>
</svg>
